<mxfile host="app.diagrams.net" agent="Mozilla/5.0 (Windows NT 10.0; Win64; x64) AppleWebKit/537.36 (KHTML, like Gecko) Chrome/132.0.0.0 YaBrowser/25.2.0.0 Safari/537.36" version="26.2.5">
  <diagram name="Страница — 1" id="boHXJyCUNun2JCywcsAg">
    <mxGraphModel dx="927" dy="971" grid="0" gridSize="10" guides="1" tooltips="1" connect="1" arrows="1" fold="1" page="0" pageScale="1" pageWidth="827" pageHeight="1169" math="0" shadow="0">
      <root>
        <mxCell id="0" />
        <mxCell id="1" parent="0" />
        <mxCell id="dtTO5dlm7Lrjq07e5K6g-49" style="rounded=0;orthogonalLoop=1;jettySize=auto;html=1;" parent="1" source="dtTO5dlm7Lrjq07e5K6g-1" target="dtTO5dlm7Lrjq07e5K6g-47" edge="1">
          <mxGeometry relative="1" as="geometry" />
        </mxCell>
        <mxCell id="dtTO5dlm7Lrjq07e5K6g-53" style="rounded=0;orthogonalLoop=1;jettySize=auto;html=1;entryX=0.031;entryY=0.34;entryDx=0;entryDy=0;entryPerimeter=0;" parent="1" source="dtTO5dlm7Lrjq07e5K6g-1" target="dtTO5dlm7Lrjq07e5K6g-52" edge="1">
          <mxGeometry relative="1" as="geometry" />
        </mxCell>
        <mxCell id="dtTO5dlm7Lrjq07e5K6g-1" value="Пациент" style="shape=umlActor;verticalLabelPosition=bottom;verticalAlign=top;html=1;outlineConnect=0;" parent="1" vertex="1">
          <mxGeometry x="38" y="197.5" width="30" height="60" as="geometry" />
        </mxCell>
        <mxCell id="dtTO5dlm7Lrjq07e5K6g-28" value="" style="rounded=0;orthogonalLoop=1;jettySize=auto;html=1;" parent="1" source="dtTO5dlm7Lrjq07e5K6g-2" target="dtTO5dlm7Lrjq07e5K6g-11" edge="1">
          <mxGeometry relative="1" as="geometry" />
        </mxCell>
        <mxCell id="kFPTA1cEjEO7Vq7TWU-J-1" style="rounded=0;orthogonalLoop=1;jettySize=auto;html=1;entryX=0.945;entryY=0.717;entryDx=0;entryDy=0;entryPerimeter=0;" edge="1" parent="1" source="dtTO5dlm7Lrjq07e5K6g-2" target="dtTO5dlm7Lrjq07e5K6g-38">
          <mxGeometry relative="1" as="geometry" />
        </mxCell>
        <mxCell id="dtTO5dlm7Lrjq07e5K6g-2" value="Бухгалтер" style="shape=umlActor;verticalLabelPosition=bottom;verticalAlign=top;html=1;outlineConnect=0;" parent="1" vertex="1">
          <mxGeometry x="673.5" y="413" width="30" height="60" as="geometry" />
        </mxCell>
        <mxCell id="dtTO5dlm7Lrjq07e5K6g-14" value="" style="rounded=0;orthogonalLoop=1;jettySize=auto;html=1;" parent="1" source="dtTO5dlm7Lrjq07e5K6g-3" target="dtTO5dlm7Lrjq07e5K6g-12" edge="1">
          <mxGeometry relative="1" as="geometry" />
        </mxCell>
        <mxCell id="dtTO5dlm7Lrjq07e5K6g-20" style="rounded=0;orthogonalLoop=1;jettySize=auto;html=1;" parent="1" source="dtTO5dlm7Lrjq07e5K6g-3" target="dtTO5dlm7Lrjq07e5K6g-19" edge="1">
          <mxGeometry relative="1" as="geometry" />
        </mxCell>
        <mxCell id="dtTO5dlm7Lrjq07e5K6g-41" style="rounded=0;orthogonalLoop=1;jettySize=auto;html=1;entryX=1;entryY=0;entryDx=0;entryDy=0;" parent="1" source="dtTO5dlm7Lrjq07e5K6g-3" target="dtTO5dlm7Lrjq07e5K6g-37" edge="1">
          <mxGeometry relative="1" as="geometry" />
        </mxCell>
        <mxCell id="dtTO5dlm7Lrjq07e5K6g-45" style="rounded=0;orthogonalLoop=1;jettySize=auto;html=1;entryX=1;entryY=0;entryDx=0;entryDy=0;" parent="1" source="dtTO5dlm7Lrjq07e5K6g-3" target="dtTO5dlm7Lrjq07e5K6g-44" edge="1">
          <mxGeometry relative="1" as="geometry" />
        </mxCell>
        <mxCell id="dtTO5dlm7Lrjq07e5K6g-3" value="Лаборант" style="shape=umlActor;verticalLabelPosition=bottom;verticalAlign=top;html=1;outlineConnect=0;" parent="1" vertex="1">
          <mxGeometry x="665.5" width="30" height="60" as="geometry" />
        </mxCell>
        <mxCell id="dtTO5dlm7Lrjq07e5K6g-22" style="rounded=0;orthogonalLoop=1;jettySize=auto;html=1;entryX=0.962;entryY=0.704;entryDx=0;entryDy=0;entryPerimeter=0;" parent="1" source="dtTO5dlm7Lrjq07e5K6g-4" target="dtTO5dlm7Lrjq07e5K6g-18" edge="1">
          <mxGeometry relative="1" as="geometry" />
        </mxCell>
        <mxCell id="dtTO5dlm7Lrjq07e5K6g-27" style="rounded=0;orthogonalLoop=1;jettySize=auto;html=1;entryX=1;entryY=0;entryDx=0;entryDy=0;" parent="1" source="dtTO5dlm7Lrjq07e5K6g-4" target="dtTO5dlm7Lrjq07e5K6g-11" edge="1">
          <mxGeometry relative="1" as="geometry" />
        </mxCell>
        <mxCell id="dtTO5dlm7Lrjq07e5K6g-42" style="rounded=0;orthogonalLoop=1;jettySize=auto;html=1;entryX=0.943;entryY=0.719;entryDx=0;entryDy=0;entryPerimeter=0;" parent="1" source="dtTO5dlm7Lrjq07e5K6g-4" target="dtTO5dlm7Lrjq07e5K6g-37" edge="1">
          <mxGeometry relative="1" as="geometry" />
        </mxCell>
        <mxCell id="dtTO5dlm7Lrjq07e5K6g-43" style="rounded=0;orthogonalLoop=1;jettySize=auto;html=1;" parent="1" source="dtTO5dlm7Lrjq07e5K6g-4" target="dtTO5dlm7Lrjq07e5K6g-39" edge="1">
          <mxGeometry relative="1" as="geometry" />
        </mxCell>
        <mxCell id="dtTO5dlm7Lrjq07e5K6g-46" style="rounded=0;orthogonalLoop=1;jettySize=auto;html=1;" parent="1" source="dtTO5dlm7Lrjq07e5K6g-4" target="dtTO5dlm7Lrjq07e5K6g-44" edge="1">
          <mxGeometry relative="1" as="geometry" />
        </mxCell>
        <mxCell id="dtTO5dlm7Lrjq07e5K6g-51" style="rounded=0;orthogonalLoop=1;jettySize=auto;html=1;entryX=1;entryY=0.5;entryDx=0;entryDy=0;" parent="1" source="dtTO5dlm7Lrjq07e5K6g-4" target="dtTO5dlm7Lrjq07e5K6g-38" edge="1">
          <mxGeometry relative="1" as="geometry" />
        </mxCell>
        <mxCell id="dtTO5dlm7Lrjq07e5K6g-4" value="Администратор" style="shape=umlActor;verticalLabelPosition=bottom;verticalAlign=top;html=1;outlineConnect=0;" parent="1" vertex="1">
          <mxGeometry x="691" y="284" width="30" height="60" as="geometry" />
        </mxCell>
        <mxCell id="dtTO5dlm7Lrjq07e5K6g-11" value="Отчетность по всем исследованиям за последние 30 дней" style="ellipse;whiteSpace=wrap;html=1;" parent="1" vertex="1">
          <mxGeometry x="437" y="400" width="178" height="64" as="geometry" />
        </mxCell>
        <mxCell id="dtTO5dlm7Lrjq07e5K6g-15" value="" style="rounded=0;orthogonalLoop=1;jettySize=auto;html=1;dashed=1;dashPattern=8 8;" parent="1" source="dtTO5dlm7Lrjq07e5K6g-12" target="dtTO5dlm7Lrjq07e5K6g-13" edge="1">
          <mxGeometry relative="1" as="geometry" />
        </mxCell>
        <mxCell id="dtTO5dlm7Lrjq07e5K6g-12" value="Забор крови" style="ellipse;whiteSpace=wrap;html=1;" parent="1" vertex="1">
          <mxGeometry x="486.5" y="-28" width="120" height="53" as="geometry" />
        </mxCell>
        <mxCell id="dtTO5dlm7Lrjq07e5K6g-13" value="Создание штрих-кода" style="ellipse;whiteSpace=wrap;html=1;" parent="1" vertex="1">
          <mxGeometry x="228.5" y="-45" width="140" height="53" as="geometry" />
        </mxCell>
        <mxCell id="dtTO5dlm7Lrjq07e5K6g-16" value="&amp;lt;&amp;lt; включает &amp;gt;&amp;gt;" style="text;html=1;align=center;verticalAlign=middle;resizable=0;points=[];autosize=1;strokeColor=none;fillColor=none;" parent="1" vertex="1">
          <mxGeometry x="390.5" y="-38" width="105" height="26" as="geometry" />
        </mxCell>
        <mxCell id="dtTO5dlm7Lrjq07e5K6g-18" value="Просмотр всех исследований" style="ellipse;whiteSpace=wrap;html=1;" parent="1" vertex="1">
          <mxGeometry x="409" y="67" width="140" height="53" as="geometry" />
        </mxCell>
        <mxCell id="dtTO5dlm7Lrjq07e5K6g-33" style="rounded=0;orthogonalLoop=1;jettySize=auto;html=1;dashed=1;dashPattern=8 8;" parent="1" source="dtTO5dlm7Lrjq07e5K6g-19" target="dtTO5dlm7Lrjq07e5K6g-31" edge="1">
          <mxGeometry relative="1" as="geometry" />
        </mxCell>
        <mxCell id="dtTO5dlm7Lrjq07e5K6g-34" style="rounded=0;orthogonalLoop=1;jettySize=auto;html=1;dashed=1;dashPattern=8 8;" parent="1" source="dtTO5dlm7Lrjq07e5K6g-19" target="dtTO5dlm7Lrjq07e5K6g-30" edge="1">
          <mxGeometry relative="1" as="geometry" />
        </mxCell>
        <mxCell id="dtTO5dlm7Lrjq07e5K6g-19" value="Обновление данных" style="ellipse;whiteSpace=wrap;html=1;" parent="1" vertex="1">
          <mxGeometry x="361.5" y="14" width="140" height="44" as="geometry" />
        </mxCell>
        <mxCell id="dtTO5dlm7Lrjq07e5K6g-21" style="rounded=0;orthogonalLoop=1;jettySize=auto;html=1;entryX=0.94;entryY=0.258;entryDx=0;entryDy=0;entryPerimeter=0;" parent="1" source="dtTO5dlm7Lrjq07e5K6g-3" target="dtTO5dlm7Lrjq07e5K6g-18" edge="1">
          <mxGeometry relative="1" as="geometry" />
        </mxCell>
        <mxCell id="dtTO5dlm7Lrjq07e5K6g-24" value="Отчетность по конкретным исследованиям за последние 30 дней" style="ellipse;whiteSpace=wrap;html=1;" parent="1" vertex="1">
          <mxGeometry x="247" y="473" width="203" height="64" as="geometry" />
        </mxCell>
        <mxCell id="dtTO5dlm7Lrjq07e5K6g-25" value="" style="rounded=0;orthogonalLoop=1;jettySize=auto;html=1;dashed=1;dashPattern=8 8;" parent="1" source="dtTO5dlm7Lrjq07e5K6g-11" target="dtTO5dlm7Lrjq07e5K6g-24" edge="1">
          <mxGeometry relative="1" as="geometry">
            <mxPoint x="421.45240473718945" y="386.24822333801694" as="sourcePoint" />
            <mxPoint x="361.17310781470496" y="419.2732051579916" as="targetPoint" />
          </mxGeometry>
        </mxCell>
        <mxCell id="dtTO5dlm7Lrjq07e5K6g-26" value="&amp;lt;&amp;lt; включает &amp;gt;&amp;gt;" style="text;html=1;align=center;verticalAlign=middle;resizable=0;points=[];autosize=1;strokeColor=none;fillColor=none;" parent="1" vertex="1">
          <mxGeometry x="345" y="446" width="105" height="26" as="geometry" />
        </mxCell>
        <mxCell id="dtTO5dlm7Lrjq07e5K6g-30" value="Обновление результатов исследований" style="ellipse;whiteSpace=wrap;html=1;" parent="1" vertex="1">
          <mxGeometry x="236.5" y="120" width="159" height="51" as="geometry" />
        </mxCell>
        <mxCell id="dtTO5dlm7Lrjq07e5K6g-31" value="Обновление статусов исследований" style="ellipse;whiteSpace=wrap;html=1;" parent="1" vertex="1">
          <mxGeometry x="133" y="31" width="140" height="53" as="geometry" />
        </mxCell>
        <mxCell id="dtTO5dlm7Lrjq07e5K6g-35" value="&amp;lt;&amp;lt; включает &amp;gt;&amp;gt;" style="text;html=1;align=center;verticalAlign=middle;resizable=0;points=[];autosize=1;strokeColor=none;fillColor=none;" parent="1" vertex="1">
          <mxGeometry x="263.5" y="17" width="105" height="26" as="geometry" />
        </mxCell>
        <mxCell id="dtTO5dlm7Lrjq07e5K6g-36" value="&amp;lt;&amp;lt; включает &amp;gt;&amp;gt;" style="text;html=1;align=center;verticalAlign=middle;resizable=0;points=[];autosize=1;strokeColor=none;fillColor=none;" parent="1" vertex="1">
          <mxGeometry x="263.5" y="82" width="105" height="26" as="geometry" />
        </mxCell>
        <mxCell id="dtTO5dlm7Lrjq07e5K6g-37" value="Просмотр всех типов услуг" style="ellipse;whiteSpace=wrap;html=1;" parent="1" vertex="1">
          <mxGeometry x="403" y="137" width="140" height="45" as="geometry" />
        </mxCell>
        <mxCell id="dtTO5dlm7Lrjq07e5K6g-56" style="rounded=0;orthogonalLoop=1;jettySize=auto;html=1;dashed=1;dashPattern=8 8;entryX=0.955;entryY=0.276;entryDx=0;entryDy=0;entryPerimeter=0;" parent="1" source="dtTO5dlm7Lrjq07e5K6g-38" target="dtTO5dlm7Lrjq07e5K6g-55" edge="1">
          <mxGeometry relative="1" as="geometry" />
        </mxCell>
        <mxCell id="dtTO5dlm7Lrjq07e5K6g-57" style="rounded=0;orthogonalLoop=1;jettySize=auto;html=1;dashed=1;dashPattern=8 8;entryX=1;entryY=0.5;entryDx=0;entryDy=0;" parent="1" source="dtTO5dlm7Lrjq07e5K6g-38" target="dtTO5dlm7Lrjq07e5K6g-54" edge="1">
          <mxGeometry relative="1" as="geometry" />
        </mxCell>
        <mxCell id="dtTO5dlm7Lrjq07e5K6g-38" value="Просмотр всех авторизаций" style="ellipse;whiteSpace=wrap;html=1;" parent="1" vertex="1">
          <mxGeometry x="439" y="323" width="140" height="53" as="geometry" />
        </mxCell>
        <mxCell id="dtTO5dlm7Lrjq07e5K6g-39" value="Добавление новых типов услуг" style="ellipse;whiteSpace=wrap;html=1;" parent="1" vertex="1">
          <mxGeometry x="373" y="265" width="140" height="45" as="geometry" />
        </mxCell>
        <mxCell id="dtTO5dlm7Lrjq07e5K6g-48" value="" style="rounded=0;orthogonalLoop=1;jettySize=auto;html=1;dashed=1;dashPattern=8 8;" parent="1" source="dtTO5dlm7Lrjq07e5K6g-44" target="dtTO5dlm7Lrjq07e5K6g-47" edge="1">
          <mxGeometry relative="1" as="geometry" />
        </mxCell>
        <mxCell id="dtTO5dlm7Lrjq07e5K6g-44" value="Создание заказа" style="ellipse;whiteSpace=wrap;html=1;" parent="1" vertex="1">
          <mxGeometry x="447" y="205" width="120" height="53" as="geometry" />
        </mxCell>
        <mxCell id="dtTO5dlm7Lrjq07e5K6g-47" value="Актуальные результаты исследований" style="ellipse;whiteSpace=wrap;html=1;" parent="1" vertex="1">
          <mxGeometry x="213" y="201" width="171" height="53" as="geometry" />
        </mxCell>
        <mxCell id="dtTO5dlm7Lrjq07e5K6g-50" value="Просмотр" style="text;html=1;align=center;verticalAlign=middle;resizable=0;points=[];autosize=1;strokeColor=none;fillColor=none;" parent="1" vertex="1">
          <mxGeometry x="101" y="201" width="73" height="26" as="geometry" />
        </mxCell>
        <mxCell id="dtTO5dlm7Lrjq07e5K6g-52" value="Авторизация в системе" style="ellipse;whiteSpace=wrap;html=1;" parent="1" vertex="1">
          <mxGeometry x="166" y="263" width="162" height="47" as="geometry" />
        </mxCell>
        <mxCell id="dtTO5dlm7Lrjq07e5K6g-54" value="Отчетность в формате CSV по конкретному пользователю" style="ellipse;whiteSpace=wrap;html=1;" parent="1" vertex="1">
          <mxGeometry x="207" y="336" width="199" height="52" as="geometry" />
        </mxCell>
        <mxCell id="dtTO5dlm7Lrjq07e5K6g-55" value="Отчетность в формате CSV по всем пользователям" style="ellipse;whiteSpace=wrap;html=1;" parent="1" vertex="1">
          <mxGeometry x="218" y="394" width="199" height="52" as="geometry" />
        </mxCell>
        <mxCell id="dtTO5dlm7Lrjq07e5K6g-58" style="rounded=0;orthogonalLoop=1;jettySize=auto;html=1;dashed=1;dashPattern=8 8;entryX=0.5;entryY=0;entryDx=0;entryDy=0;" parent="1" source="dtTO5dlm7Lrjq07e5K6g-52" target="dtTO5dlm7Lrjq07e5K6g-54" edge="1">
          <mxGeometry relative="1" as="geometry">
            <mxPoint x="319" y="322" as="targetPoint" />
          </mxGeometry>
        </mxCell>
      </root>
    </mxGraphModel>
  </diagram>
</mxfile>
